<svg width="16" height="16" viewBox="0 0 16 16" fill="none" xmlns="http://www.w3.org/2000/svg">
<path d="M4.45269 12.12C3.88469 12.12 3.39269 12.016 2.97669 11.808C2.56069 11.592 2.23669 11.292 2.00469 10.908C1.78069 10.516 1.66869 10.056 1.66869 9.528V5.712C1.66869 5.184 1.78069 4.728 2.00469 4.344C2.23669 3.952 2.56069 3.652 2.97669 3.444C3.39269 3.228 3.88469 3.12 4.45269 3.12C5.01269 3.12 5.50069 3.228 5.91669 3.444C6.33269 3.652 6.65669 3.952 6.88869 4.344C7.12069 4.728 7.23669 5.184 7.23669 5.712H5.72469C5.72469 5.304 5.61269 4.992 5.38869 4.776C5.17269 4.552 4.86069 4.44 4.45269 4.44C4.04469 4.44 3.72869 4.548 3.50469 4.764C3.28069 4.98 3.16869 5.292 3.16869 5.7V9.528C3.16869 9.936 3.28069 10.252 3.50469 10.476C3.72869 10.692 4.04469 10.8 4.45269 10.8C4.86069 10.8 5.17269 10.692 5.38869 10.476C5.61269 10.252 5.72469 9.936 5.72469 9.528H7.23669C7.23669 10.056 7.12069 10.516 6.88869 10.908C6.65669 11.292 6.33269 11.592 5.91669 11.808C5.50069 12.016 5.01269 12.12 4.45269 12.12ZM8.924 12L9.332 9.72H8.42V8.7H9.5L9.872 6.54H8.84V5.52H10.052L10.46 3.24H11.516L11.108 5.52H12.812L13.22 3.24H14.276L13.868 5.52H14.78V6.54H13.688L13.316 8.7H14.36V9.72H13.136L12.74 12H11.684L12.092 9.72H10.376L9.98 12H8.924ZM10.556 8.7H12.26L12.632 6.54H10.928L10.556 8.7Z" fill="#B35DEF"/>
</svg>
