<svg width="16" height="16" viewBox="0 0 16 16" fill="none" xmlns="http://www.w3.org/2000/svg">
<path d="M4.65269 12.12C4.09269 12.12 3.60069 12.016 3.17669 11.808C2.76069 11.592 2.43669 11.292 2.20469 10.908C1.98069 10.516 1.86869 10.056 1.86869 9.528V5.712C1.86869 5.176 1.98069 4.716 2.20469 4.332C2.43669 3.948 2.76069 3.652 3.17669 3.444C3.60069 3.228 4.09269 3.12 4.65269 3.12C5.22069 3.12 5.70869 3.228 6.11669 3.444C6.53269 3.652 6.85669 3.948 7.08869 4.332C7.32069 4.716 7.43669 5.176 7.43669 5.712H5.92469C5.92469 5.296 5.81269 4.98 5.58869 4.764C5.37269 4.548 5.06069 4.44 4.65269 4.44C4.24469 4.44 3.92869 4.548 3.70469 4.764C3.48069 4.98 3.36869 5.292 3.36869 5.7V9.528C3.36869 9.936 3.48069 10.252 3.70469 10.476C3.92869 10.7 4.24469 10.812 4.65269 10.812C5.06069 10.812 5.37269 10.7 5.58869 10.476C5.81269 10.252 5.92469 9.936 5.92469 9.528V8.556H4.43669V7.26H7.43669V9.528C7.43669 10.056 7.32069 10.516 7.08869 10.908C6.85669 11.292 6.53269 11.592 6.11669 11.808C5.70869 12.016 5.22069 12.12 4.65269 12.12ZM11.4 12.12C10.56 12.12 9.892 11.88 9.396 11.4C8.908 10.92 8.664 10.256 8.664 9.408V5.832C8.664 4.976 8.908 4.312 9.396 3.84C9.892 3.36 10.56 3.12 11.4 3.12C12.24 3.12 12.904 3.36 13.392 3.84C13.888 4.312 14.136 4.972 14.136 5.82V9.408C14.136 10.256 13.888 10.92 13.392 11.4C12.904 11.88 12.24 12.12 11.4 12.12ZM11.4 10.8C11.808 10.8 12.116 10.692 12.324 10.476C12.532 10.252 12.636 9.936 12.636 9.528V5.712C12.636 5.296 12.532 4.98 12.324 4.764C12.116 4.548 11.808 4.44 11.4 4.44C10.992 4.44 10.684 4.548 10.476 4.764C10.268 4.98 10.164 5.296 10.164 5.712V9.528C10.164 9.936 10.268 10.252 10.476 10.476C10.692 10.692 11 10.8 11.4 10.8Z" fill="#3691F9"/>
</svg>
