<svg width="16" height="16" viewBox="0 0 16 16" fill="none" xmlns="http://www.w3.org/2000/svg">
<path d="M12 2H4C2.89543 2 2 2.89543 2 4V12C2 13.1046 2.89543 14 4 14H12C13.1046 14 14 13.1046 14 12V4C14 2.89543 13.1046 2 12 2Z" fill="#F8AB17"/>
<path d="M5.69273 10.8699C5.15607 10.8699 4.72907 10.7253 4.41173 10.4359C4.09907 10.1419 3.94273 9.74759 3.94273 9.25293H4.99273C4.99273 9.46759 5.05573 9.64026 5.18173 9.77093C5.30773 9.89693 5.47807 9.95993 5.69273 9.95993C5.9074 9.95993 6.07773 9.89926 6.20373 9.77793C6.32973 9.65193 6.39273 9.48159 6.39273 9.26693V6.63493H4.95773V5.68993H7.44273V9.26693C7.44273 9.76159 7.2864 10.1536 6.97373 10.4429C6.66107 10.7276 6.23407 10.8699 5.69273 10.8699ZM10.1 10.8699C9.74067 10.8699 9.428 10.8093 9.162 10.6879C8.896 10.5666 8.69067 10.3963 8.546 10.1769C8.40133 9.95759 8.329 9.69859 8.329 9.39993H9.379C9.379 9.57259 9.44433 9.71026 9.575 9.81293C9.71033 9.91093 9.89233 9.95993 10.121 9.95993C10.3403 9.95993 10.5107 9.91093 10.632 9.81293C10.758 9.71493 10.821 9.57959 10.821 9.40693C10.821 9.25759 10.7743 9.12926 10.681 9.02193C10.5877 8.91459 10.457 8.84226 10.289 8.80493L9.771 8.68593C9.337 8.58326 8.99867 8.39426 8.756 8.11893C8.518 7.83893 8.399 7.49826 8.399 7.09693C8.399 6.64893 8.55067 6.29193 8.854 6.02593C9.15733 5.75526 9.568 5.61993 10.086 5.61993C10.6087 5.61993 11.0217 5.75059 11.325 6.01193C11.633 6.26859 11.787 6.61626 11.787 7.05493H10.737C10.737 6.89159 10.6787 6.76326 10.562 6.66993C10.45 6.57659 10.2867 6.52993 10.072 6.52993C9.87133 6.52993 9.71733 6.57659 9.61 6.66993C9.50267 6.76326 9.449 6.90093 9.449 7.08293C9.449 7.21826 9.49333 7.33959 9.582 7.44693C9.67533 7.54959 9.80833 7.61959 9.981 7.65693L10.492 7.77593C10.9447 7.87859 11.2877 8.06526 11.521 8.33593C11.7543 8.60193 11.871 8.94259 11.871 9.35793C11.871 9.65659 11.7963 9.92026 11.647 10.1489C11.5023 10.3776 11.297 10.5549 11.031 10.6809C10.7697 10.8069 10.4593 10.8699 10.1 10.8699Z" fill="black"/>
</svg>
