<svg width="16" height="16" viewBox="0 0 16 16" fill="none" xmlns="http://www.w3.org/2000/svg">
<path d="M14 9L12 9L12 6L12.9091 6C13.5116 6 14 6.48842 14 7.09091L14 9Z" fill="#F8C63D"/>
<path d="M14 9.40909C14 10.0116 13.5116 10.5 12.9091 10.5L5 10.5L5 9.59091C5 8.98842 5.48842 8.5 6.09091 8.5L14 8.5L14 9.40909Z" fill="#F8C63D"/>
<path d="M11 12.9091C11 13.5116 10.5116 14 9.90909 14L6.09091 14C5.48842 14 5 13.5116 5 12.9091L5 10L11 10L11 12.9091Z" fill="#F8C63D"/>
<rect x="10.0908" y="13.0909" width="1.09091" height="1.09091" rx="0.545455" transform="rotate(-180 10.0908 13.0909)" fill="black"/>
<path d="M11.9987 8.5L12 7.40888C12 8.01138 11.5116 8.49979 10.9091 8.49979C10.9091 8.49979 11.4733 8.5 11.9987 8.5Z" fill="#F8C63D"/>
<path d="M2 6L4 6L4 10L3.09091 10C2.48842 10 2 9.51158 2 8.90909L2 6Z" fill="#1A85F6"/>
<path d="M2 6.09091C2 5.48842 2.48842 5 3.09091 5L11 5L11 6.40909C11 7.01158 10.5116 7.5 9.90909 7.5L2 7.5L2 6.09091Z" fill="#1A85F6"/>
<path d="M5 3.09091C5 2.48842 5.48842 2 6.09091 2L9.90909 2C10.5116 2 11 2.48842 11 3.09091L11 6L5 6L5 3.09091Z" fill="#1A85F6"/>
<rect x="6" y="3" width="1.09091" height="1.09091" rx="0.545455" fill="black"/>
<path d="M4.00125 7.5L4 8.59112C4 7.98862 4.48842 7.50021 5.09091 7.50021C5.09091 7.50021 4.52671 7.5 4.00125 7.5Z" fill="#1A85F6"/>
</svg>
